<mxfile host="app.diagrams.net" agent="Mozilla/5.0 (Windows NT 10.0; Win64; x64) AppleWebKit/537.36 (KHTML, like Gecko) Chrome/129.0.0.0 Safari/537.36" version="24.7.14">
  <diagram id="R2lEEEUBdFMjLlhIrx00" name="Page-1">
    <mxGraphModel grid="1" page="1" gridSize="10" guides="1" tooltips="1" connect="1" arrows="1" fold="1" pageScale="1" pageWidth="850" pageHeight="1100" math="0" shadow="0" extFonts="Permanent Marker^https://fonts.googleapis.com/css?family=Permanent+Marker">
      <root>
        <mxCell id="0" />
        <mxCell id="1" parent="0" />
        <mxCell id="zzIRKbBPDOLUtm7-fd6k-32" value="" style="edgeStyle=orthogonalEdgeStyle;rounded=0;orthogonalLoop=1;jettySize=auto;html=1;" edge="1" parent="1" source="zzIRKbBPDOLUtm7-fd6k-5" target="zzIRKbBPDOLUtm7-fd6k-26">
          <mxGeometry relative="1" as="geometry" />
        </mxCell>
        <mxCell id="zzIRKbBPDOLUtm7-fd6k-33" style="edgeStyle=orthogonalEdgeStyle;rounded=0;orthogonalLoop=1;jettySize=auto;html=1;entryX=0.5;entryY=1;entryDx=0;entryDy=0;" edge="1" parent="1" source="zzIRKbBPDOLUtm7-fd6k-5" target="zzIRKbBPDOLUtm7-fd6k-22">
          <mxGeometry relative="1" as="geometry" />
        </mxCell>
        <mxCell id="zzIRKbBPDOLUtm7-fd6k-34" style="edgeStyle=orthogonalEdgeStyle;rounded=0;orthogonalLoop=1;jettySize=auto;html=1;entryX=0.5;entryY=1;entryDx=0;entryDy=0;" edge="1" parent="1" source="zzIRKbBPDOLUtm7-fd6k-5" target="zzIRKbBPDOLUtm7-fd6k-14">
          <mxGeometry relative="1" as="geometry" />
        </mxCell>
        <mxCell id="zzIRKbBPDOLUtm7-fd6k-35" style="edgeStyle=orthogonalEdgeStyle;rounded=0;orthogonalLoop=1;jettySize=auto;html=1;entryX=0.5;entryY=1;entryDx=0;entryDy=0;" edge="1" parent="1" source="zzIRKbBPDOLUtm7-fd6k-5">
          <mxGeometry relative="1" as="geometry">
            <mxPoint x="210" y="-210" as="targetPoint" />
          </mxGeometry>
        </mxCell>
        <mxCell id="zzIRKbBPDOLUtm7-fd6k-36" style="edgeStyle=orthogonalEdgeStyle;rounded=0;orthogonalLoop=1;jettySize=auto;html=1;entryX=0.5;entryY=1;entryDx=0;entryDy=0;" edge="1" parent="1" source="zzIRKbBPDOLUtm7-fd6k-5" target="zzIRKbBPDOLUtm7-fd6k-28">
          <mxGeometry relative="1" as="geometry" />
        </mxCell>
        <mxCell id="zzIRKbBPDOLUtm7-fd6k-37" style="edgeStyle=orthogonalEdgeStyle;rounded=0;orthogonalLoop=1;jettySize=auto;html=1;exitX=0;exitY=0.5;exitDx=0;exitDy=0;entryX=0.5;entryY=1;entryDx=0;entryDy=0;" edge="1" parent="1" source="zzIRKbBPDOLUtm7-fd6k-5" target="zzIRKbBPDOLUtm7-fd6k-30">
          <mxGeometry relative="1" as="geometry" />
        </mxCell>
        <mxCell id="zzIRKbBPDOLUtm7-fd6k-38" style="edgeStyle=orthogonalEdgeStyle;rounded=0;orthogonalLoop=1;jettySize=auto;html=1;entryX=0.5;entryY=1;entryDx=0;entryDy=0;" edge="1" parent="1" source="zzIRKbBPDOLUtm7-fd6k-5" target="zzIRKbBPDOLUtm7-fd6k-31">
          <mxGeometry relative="1" as="geometry" />
        </mxCell>
        <mxCell id="zzIRKbBPDOLUtm7-fd6k-5" value="Cliente" style="whiteSpace=wrap;html=1;align=center;" vertex="1" parent="1">
          <mxGeometry x="-220" y="-150" width="100" height="40" as="geometry" />
        </mxCell>
        <mxCell id="zzIRKbBPDOLUtm7-fd6k-103" value="" style="edgeStyle=orthogonalEdgeStyle;rounded=0;orthogonalLoop=1;jettySize=auto;html=1;" edge="1" parent="1" source="zzIRKbBPDOLUtm7-fd6k-12" target="zzIRKbBPDOLUtm7-fd6k-58">
          <mxGeometry relative="1" as="geometry" />
        </mxCell>
        <mxCell id="zzIRKbBPDOLUtm7-fd6k-104" style="edgeStyle=orthogonalEdgeStyle;rounded=0;orthogonalLoop=1;jettySize=auto;html=1;entryX=0.5;entryY=1;entryDx=0;entryDy=0;" edge="1" parent="1" source="zzIRKbBPDOLUtm7-fd6k-12" target="zzIRKbBPDOLUtm7-fd6k-61">
          <mxGeometry relative="1" as="geometry" />
        </mxCell>
        <mxCell id="zzIRKbBPDOLUtm7-fd6k-105" style="edgeStyle=orthogonalEdgeStyle;rounded=0;orthogonalLoop=1;jettySize=auto;html=1;entryX=0.5;entryY=1;entryDx=0;entryDy=0;" edge="1" parent="1" source="zzIRKbBPDOLUtm7-fd6k-12" target="zzIRKbBPDOLUtm7-fd6k-62">
          <mxGeometry relative="1" as="geometry" />
        </mxCell>
        <mxCell id="zzIRKbBPDOLUtm7-fd6k-106" style="edgeStyle=orthogonalEdgeStyle;rounded=0;orthogonalLoop=1;jettySize=auto;html=1;entryX=0.5;entryY=1;entryDx=0;entryDy=0;" edge="1" parent="1" source="zzIRKbBPDOLUtm7-fd6k-12" target="zzIRKbBPDOLUtm7-fd6k-66">
          <mxGeometry relative="1" as="geometry" />
        </mxCell>
        <mxCell id="zzIRKbBPDOLUtm7-fd6k-107" style="edgeStyle=orthogonalEdgeStyle;rounded=0;orthogonalLoop=1;jettySize=auto;html=1;entryX=0.5;entryY=1;entryDx=0;entryDy=0;" edge="1" parent="1" source="zzIRKbBPDOLUtm7-fd6k-12" target="zzIRKbBPDOLUtm7-fd6k-63">
          <mxGeometry relative="1" as="geometry" />
        </mxCell>
        <mxCell id="zzIRKbBPDOLUtm7-fd6k-108" style="edgeStyle=orthogonalEdgeStyle;rounded=0;orthogonalLoop=1;jettySize=auto;html=1;entryX=0.5;entryY=1;entryDx=0;entryDy=0;" edge="1" parent="1" source="zzIRKbBPDOLUtm7-fd6k-12" target="zzIRKbBPDOLUtm7-fd6k-64">
          <mxGeometry relative="1" as="geometry" />
        </mxCell>
        <mxCell id="zzIRKbBPDOLUtm7-fd6k-109" style="edgeStyle=orthogonalEdgeStyle;rounded=0;orthogonalLoop=1;jettySize=auto;html=1;entryX=0.5;entryY=1;entryDx=0;entryDy=0;" edge="1" parent="1" source="zzIRKbBPDOLUtm7-fd6k-12" target="zzIRKbBPDOLUtm7-fd6k-65">
          <mxGeometry relative="1" as="geometry" />
        </mxCell>
        <mxCell id="zzIRKbBPDOLUtm7-fd6k-12" value="Proveedor" style="whiteSpace=wrap;html=1;align=center;" vertex="1" parent="1">
          <mxGeometry x="910" y="-150" width="100" height="40" as="geometry" />
        </mxCell>
        <mxCell id="zzIRKbBPDOLUtm7-fd6k-14" value="idCliente" style="ellipse;whiteSpace=wrap;html=1;align=center;" vertex="1" parent="1">
          <mxGeometry x="30" y="-250" width="100" height="40" as="geometry" />
        </mxCell>
        <mxCell id="zzIRKbBPDOLUtm7-fd6k-22" value="Documento" style="ellipse;whiteSpace=wrap;html=1;align=center;" vertex="1" parent="1">
          <mxGeometry x="-100" y="-250" width="100" height="40" as="geometry" />
        </mxCell>
        <mxCell id="zzIRKbBPDOLUtm7-fd6k-24" value="NombreCompleto" style="ellipse;whiteSpace=wrap;html=1;align=center;" vertex="1" parent="1">
          <mxGeometry x="155.06" y="-250" width="100" height="40" as="geometry" />
        </mxCell>
        <mxCell id="zzIRKbBPDOLUtm7-fd6k-26" value="Correo" style="ellipse;whiteSpace=wrap;html=1;align=center;" vertex="1" parent="1">
          <mxGeometry x="-220" y="-250" width="100" height="40" as="geometry" />
        </mxCell>
        <mxCell id="zzIRKbBPDOLUtm7-fd6k-28" value="Telefono" style="ellipse;whiteSpace=wrap;html=1;align=center;" vertex="1" parent="1">
          <mxGeometry x="-340" y="-250" width="100" height="40" as="geometry" />
        </mxCell>
        <mxCell id="zzIRKbBPDOLUtm7-fd6k-30" value="Estado" style="ellipse;whiteSpace=wrap;html=1;align=center;" vertex="1" parent="1">
          <mxGeometry x="-460" y="-250" width="100" height="40" as="geometry" />
        </mxCell>
        <mxCell id="zzIRKbBPDOLUtm7-fd6k-31" value="FechaRegistro" style="ellipse;whiteSpace=wrap;html=1;align=center;" vertex="1" parent="1">
          <mxGeometry x="-580" y="-250" width="100" height="40" as="geometry" />
        </mxCell>
        <mxCell id="zzIRKbBPDOLUtm7-fd6k-43" style="edgeStyle=orthogonalEdgeStyle;rounded=0;orthogonalLoop=1;jettySize=auto;html=1;exitX=0.5;exitY=0;exitDx=0;exitDy=0;entryX=0.5;entryY=1;entryDx=0;entryDy=0;" edge="1" parent="1" source="zzIRKbBPDOLUtm7-fd6k-40" target="zzIRKbBPDOLUtm7-fd6k-42">
          <mxGeometry relative="1" as="geometry" />
        </mxCell>
        <mxCell id="zzIRKbBPDOLUtm7-fd6k-51" style="edgeStyle=orthogonalEdgeStyle;rounded=0;orthogonalLoop=1;jettySize=auto;html=1;exitX=1;exitY=0.5;exitDx=0;exitDy=0;entryX=0.5;entryY=1;entryDx=0;entryDy=0;" edge="1" parent="1" source="zzIRKbBPDOLUtm7-fd6k-40" target="zzIRKbBPDOLUtm7-fd6k-44">
          <mxGeometry relative="1" as="geometry" />
        </mxCell>
        <mxCell id="zzIRKbBPDOLUtm7-fd6k-52" style="edgeStyle=orthogonalEdgeStyle;rounded=0;orthogonalLoop=1;jettySize=auto;html=1;entryX=0.5;entryY=1;entryDx=0;entryDy=0;" edge="1" parent="1" source="zzIRKbBPDOLUtm7-fd6k-40" target="zzIRKbBPDOLUtm7-fd6k-45">
          <mxGeometry relative="1" as="geometry" />
        </mxCell>
        <mxCell id="zzIRKbBPDOLUtm7-fd6k-53" style="edgeStyle=orthogonalEdgeStyle;rounded=0;orthogonalLoop=1;jettySize=auto;html=1;entryX=0.5;entryY=1;entryDx=0;entryDy=0;" edge="1" parent="1" source="zzIRKbBPDOLUtm7-fd6k-40" target="zzIRKbBPDOLUtm7-fd6k-48">
          <mxGeometry relative="1" as="geometry" />
        </mxCell>
        <mxCell id="zzIRKbBPDOLUtm7-fd6k-54" style="edgeStyle=orthogonalEdgeStyle;rounded=0;orthogonalLoop=1;jettySize=auto;html=1;entryX=0.5;entryY=1;entryDx=0;entryDy=0;" edge="1" parent="1" source="zzIRKbBPDOLUtm7-fd6k-40">
          <mxGeometry relative="1" as="geometry">
            <mxPoint x="880" y="-430" as="targetPoint" />
          </mxGeometry>
        </mxCell>
        <mxCell id="zzIRKbBPDOLUtm7-fd6k-55" style="edgeStyle=orthogonalEdgeStyle;rounded=0;orthogonalLoop=1;jettySize=auto;html=1;exitX=0;exitY=0.5;exitDx=0;exitDy=0;entryX=0.5;entryY=1;entryDx=0;entryDy=0;" edge="1" parent="1" source="zzIRKbBPDOLUtm7-fd6k-40" target="zzIRKbBPDOLUtm7-fd6k-46">
          <mxGeometry relative="1" as="geometry" />
        </mxCell>
        <mxCell id="zzIRKbBPDOLUtm7-fd6k-56" style="edgeStyle=orthogonalEdgeStyle;rounded=0;orthogonalLoop=1;jettySize=auto;html=1;exitX=0;exitY=0.5;exitDx=0;exitDy=0;entryX=0.5;entryY=1;entryDx=0;entryDy=0;" edge="1" parent="1" source="zzIRKbBPDOLUtm7-fd6k-40" target="zzIRKbBPDOLUtm7-fd6k-47">
          <mxGeometry relative="1" as="geometry" />
        </mxCell>
        <mxCell id="zzIRKbBPDOLUtm7-fd6k-57" style="edgeStyle=orthogonalEdgeStyle;rounded=0;orthogonalLoop=1;jettySize=auto;html=1;entryX=0.5;entryY=1;entryDx=0;entryDy=0;" edge="1" parent="1" source="zzIRKbBPDOLUtm7-fd6k-40" target="zzIRKbBPDOLUtm7-fd6k-50">
          <mxGeometry relative="1" as="geometry" />
        </mxCell>
        <mxCell id="zzIRKbBPDOLUtm7-fd6k-40" value="Usuario" style="rounded=0;whiteSpace=wrap;html=1;" vertex="1" parent="1">
          <mxGeometry x="375" y="-360" width="120" height="60" as="geometry" />
        </mxCell>
        <mxCell id="zzIRKbBPDOLUtm7-fd6k-42" value="idUsuario" style="ellipse;whiteSpace=wrap;html=1;align=center;" vertex="1" parent="1">
          <mxGeometry x="385" y="-470" width="100" height="40" as="geometry" />
        </mxCell>
        <mxCell id="zzIRKbBPDOLUtm7-fd6k-44" value="Documento" style="ellipse;whiteSpace=wrap;html=1;align=center;" vertex="1" parent="1">
          <mxGeometry x="495" y="-470" width="100" height="40" as="geometry" />
        </mxCell>
        <mxCell id="zzIRKbBPDOLUtm7-fd6k-45" value="NombreCompleto" style="ellipse;whiteSpace=wrap;html=1;align=center;" vertex="1" parent="1">
          <mxGeometry x="610" y="-470" width="100" height="40" as="geometry" />
        </mxCell>
        <mxCell id="zzIRKbBPDOLUtm7-fd6k-46" value="Correo" style="ellipse;whiteSpace=wrap;html=1;align=center;" vertex="1" parent="1">
          <mxGeometry x="275" y="-470" width="100" height="40" as="geometry" />
        </mxCell>
        <mxCell id="zzIRKbBPDOLUtm7-fd6k-47" value="Clave" style="ellipse;whiteSpace=wrap;html=1;align=center;" vertex="1" parent="1">
          <mxGeometry x="165.05999999999995" y="-470" width="100" height="40" as="geometry" />
        </mxCell>
        <mxCell id="zzIRKbBPDOLUtm7-fd6k-48" value="idRol" style="ellipse;whiteSpace=wrap;html=1;align=center;" vertex="1" parent="1">
          <mxGeometry x="720" y="-470" width="100" height="40" as="geometry" />
        </mxCell>
        <mxCell id="zzIRKbBPDOLUtm7-fd6k-49" value="Estado" style="ellipse;whiteSpace=wrap;html=1;align=center;" vertex="1" parent="1">
          <mxGeometry x="840" y="-470" width="100" height="40" as="geometry" />
        </mxCell>
        <mxCell id="zzIRKbBPDOLUtm7-fd6k-50" value="FechaRegistro" style="ellipse;whiteSpace=wrap;html=1;align=center;" vertex="1" parent="1">
          <mxGeometry x="50" y="-470" width="100" height="40" as="geometry" />
        </mxCell>
        <mxCell id="zzIRKbBPDOLUtm7-fd6k-58" value="idProveedor" style="ellipse;whiteSpace=wrap;html=1;align=center;" vertex="1" parent="1">
          <mxGeometry x="910" y="-250" width="100" height="40" as="geometry" />
        </mxCell>
        <mxCell id="zzIRKbBPDOLUtm7-fd6k-61" value="Documento" style="ellipse;whiteSpace=wrap;html=1;align=center;" vertex="1" parent="1">
          <mxGeometry x="1025" y="-250" width="100" height="40" as="geometry" />
        </mxCell>
        <mxCell id="zzIRKbBPDOLUtm7-fd6k-62" value="RazonSocial" style="ellipse;whiteSpace=wrap;html=1;align=center;" vertex="1" parent="1">
          <mxGeometry x="1140" y="-250" width="100" height="40" as="geometry" />
        </mxCell>
        <mxCell id="zzIRKbBPDOLUtm7-fd6k-63" value="Correo" style="ellipse;whiteSpace=wrap;html=1;align=center;" vertex="1" parent="1">
          <mxGeometry x="800" y="-250" width="100" height="40" as="geometry" />
        </mxCell>
        <mxCell id="zzIRKbBPDOLUtm7-fd6k-64" value="Telefono" style="ellipse;whiteSpace=wrap;html=1;align=center;" vertex="1" parent="1">
          <mxGeometry x="690" y="-250" width="100" height="40" as="geometry" />
        </mxCell>
        <mxCell id="zzIRKbBPDOLUtm7-fd6k-65" value="Estado" style="ellipse;whiteSpace=wrap;html=1;align=center;" vertex="1" parent="1">
          <mxGeometry x="580" y="-250" width="100" height="40" as="geometry" />
        </mxCell>
        <mxCell id="zzIRKbBPDOLUtm7-fd6k-66" value="FechaRegistro" style="ellipse;whiteSpace=wrap;html=1;align=center;" vertex="1" parent="1">
          <mxGeometry x="1250" y="-250" width="100" height="40" as="geometry" />
        </mxCell>
        <mxCell id="zzIRKbBPDOLUtm7-fd6k-76" style="edgeStyle=orthogonalEdgeStyle;rounded=0;orthogonalLoop=1;jettySize=auto;html=1;entryX=0.5;entryY=1;entryDx=0;entryDy=0;" edge="1" parent="1" source="zzIRKbBPDOLUtm7-fd6k-73" target="zzIRKbBPDOLUtm7-fd6k-5">
          <mxGeometry relative="1" as="geometry" />
        </mxCell>
        <mxCell id="zzIRKbBPDOLUtm7-fd6k-78" style="edgeStyle=orthogonalEdgeStyle;rounded=0;orthogonalLoop=1;jettySize=auto;html=1;exitX=0.5;exitY=0;exitDx=0;exitDy=0;entryX=0.5;entryY=1;entryDx=0;entryDy=0;" edge="1" parent="1" source="zzIRKbBPDOLUtm7-fd6k-73" target="zzIRKbBPDOLUtm7-fd6k-40">
          <mxGeometry relative="1" as="geometry" />
        </mxCell>
        <mxCell id="zzIRKbBPDOLUtm7-fd6k-94" style="edgeStyle=orthogonalEdgeStyle;rounded=0;orthogonalLoop=1;jettySize=auto;html=1;entryX=0.5;entryY=1;entryDx=0;entryDy=0;" edge="1" parent="1" source="zzIRKbBPDOLUtm7-fd6k-73" target="zzIRKbBPDOLUtm7-fd6k-12">
          <mxGeometry relative="1" as="geometry" />
        </mxCell>
        <mxCell id="bhLm6DdJhXgEGIZ7W5pc-1" style="edgeStyle=orthogonalEdgeStyle;rounded=0;orthogonalLoop=1;jettySize=auto;html=1;exitX=1;exitY=1;exitDx=0;exitDy=0;" edge="1" parent="1" source="zzIRKbBPDOLUtm7-fd6k-73">
          <mxGeometry relative="1" as="geometry">
            <mxPoint x="959.9999999999995" y="100.00000000000023" as="targetPoint" />
          </mxGeometry>
        </mxCell>
        <mxCell id="3UG_Vdnqo0wrHl0kHw0I-7" style="edgeStyle=orthogonalEdgeStyle;rounded=0;orthogonalLoop=1;jettySize=auto;html=1;exitX=0;exitY=1;exitDx=0;exitDy=0;entryX=0.5;entryY=0;entryDx=0;entryDy=0;" edge="1" parent="1" source="zzIRKbBPDOLUtm7-fd6k-73" target="3UG_Vdnqo0wrHl0kHw0I-5">
          <mxGeometry relative="1" as="geometry" />
        </mxCell>
        <mxCell id="3UG_Vdnqo0wrHl0kHw0I-17" style="edgeStyle=orthogonalEdgeStyle;rounded=0;orthogonalLoop=1;jettySize=auto;html=1;exitX=0.5;exitY=1;exitDx=0;exitDy=0;" edge="1" parent="1" source="zzIRKbBPDOLUtm7-fd6k-73" target="3UG_Vdnqo0wrHl0kHw0I-16">
          <mxGeometry relative="1" as="geometry" />
        </mxCell>
        <mxCell id="3UG_Vdnqo0wrHl0kHw0I-43" style="edgeStyle=orthogonalEdgeStyle;rounded=0;orthogonalLoop=1;jettySize=auto;html=1;exitX=0.5;exitY=1;exitDx=0;exitDy=0;" edge="1" parent="1" source="zzIRKbBPDOLUtm7-fd6k-73" target="3UG_Vdnqo0wrHl0kHw0I-39">
          <mxGeometry relative="1" as="geometry" />
        </mxCell>
        <mxCell id="zzIRKbBPDOLUtm7-fd6k-73" value="Contiene" style="shape=rhombus;perimeter=rhombusPerimeter;whiteSpace=wrap;html=1;align=center;" vertex="1" parent="1">
          <mxGeometry x="375" y="-60" width="120" height="60" as="geometry" />
        </mxCell>
        <mxCell id="bhLm6DdJhXgEGIZ7W5pc-11" style="edgeStyle=orthogonalEdgeStyle;rounded=0;orthogonalLoop=1;jettySize=auto;html=1;exitX=0.5;exitY=1;exitDx=0;exitDy=0;entryX=0.5;entryY=0;entryDx=0;entryDy=0;" edge="1" parent="1" source="bhLm6DdJhXgEGIZ7W5pc-2" target="bhLm6DdJhXgEGIZ7W5pc-3">
          <mxGeometry relative="1" as="geometry" />
        </mxCell>
        <mxCell id="bhLm6DdJhXgEGIZ7W5pc-13" style="edgeStyle=orthogonalEdgeStyle;rounded=0;orthogonalLoop=1;jettySize=auto;html=1;exitX=0.5;exitY=1;exitDx=0;exitDy=0;entryX=0.5;entryY=0;entryDx=0;entryDy=0;" edge="1" parent="1" source="bhLm6DdJhXgEGIZ7W5pc-2" target="bhLm6DdJhXgEGIZ7W5pc-5">
          <mxGeometry relative="1" as="geometry" />
        </mxCell>
        <mxCell id="bhLm6DdJhXgEGIZ7W5pc-14" style="edgeStyle=orthogonalEdgeStyle;rounded=0;orthogonalLoop=1;jettySize=auto;html=1;exitX=0.5;exitY=1;exitDx=0;exitDy=0;entryX=0.5;entryY=0;entryDx=0;entryDy=0;" edge="1" parent="1" source="bhLm6DdJhXgEGIZ7W5pc-2" target="bhLm6DdJhXgEGIZ7W5pc-8">
          <mxGeometry relative="1" as="geometry" />
        </mxCell>
        <mxCell id="bhLm6DdJhXgEGIZ7W5pc-15" style="edgeStyle=orthogonalEdgeStyle;rounded=0;orthogonalLoop=1;jettySize=auto;html=1;exitX=0.5;exitY=1;exitDx=0;exitDy=0;entryX=0.5;entryY=0;entryDx=0;entryDy=0;" edge="1" parent="1" source="bhLm6DdJhXgEGIZ7W5pc-2" target="bhLm6DdJhXgEGIZ7W5pc-10">
          <mxGeometry relative="1" as="geometry" />
        </mxCell>
        <mxCell id="bhLm6DdJhXgEGIZ7W5pc-17" style="edgeStyle=orthogonalEdgeStyle;rounded=0;orthogonalLoop=1;jettySize=auto;html=1;exitX=0.5;exitY=1;exitDx=0;exitDy=0;entryX=0.5;entryY=0;entryDx=0;entryDy=0;" edge="1" parent="1" source="bhLm6DdJhXgEGIZ7W5pc-2" target="bhLm6DdJhXgEGIZ7W5pc-16">
          <mxGeometry relative="1" as="geometry" />
        </mxCell>
        <mxCell id="bhLm6DdJhXgEGIZ7W5pc-19" style="edgeStyle=orthogonalEdgeStyle;rounded=0;orthogonalLoop=1;jettySize=auto;html=1;exitX=0.5;exitY=1;exitDx=0;exitDy=0;" edge="1" parent="1" source="bhLm6DdJhXgEGIZ7W5pc-2" target="bhLm6DdJhXgEGIZ7W5pc-18">
          <mxGeometry relative="1" as="geometry" />
        </mxCell>
        <mxCell id="bhLm6DdJhXgEGIZ7W5pc-21" style="edgeStyle=orthogonalEdgeStyle;rounded=0;orthogonalLoop=1;jettySize=auto;html=1;exitX=0.5;exitY=1;exitDx=0;exitDy=0;entryX=0.5;entryY=0;entryDx=0;entryDy=0;" edge="1" parent="1" source="bhLm6DdJhXgEGIZ7W5pc-2" target="bhLm6DdJhXgEGIZ7W5pc-20">
          <mxGeometry relative="1" as="geometry" />
        </mxCell>
        <mxCell id="bhLm6DdJhXgEGIZ7W5pc-25" style="edgeStyle=orthogonalEdgeStyle;rounded=0;orthogonalLoop=1;jettySize=auto;html=1;exitX=0.5;exitY=1;exitDx=0;exitDy=0;entryX=0.5;entryY=0;entryDx=0;entryDy=0;" edge="1" parent="1" source="bhLm6DdJhXgEGIZ7W5pc-2" target="bhLm6DdJhXgEGIZ7W5pc-24">
          <mxGeometry relative="1" as="geometry" />
        </mxCell>
        <mxCell id="bhLm6DdJhXgEGIZ7W5pc-26" style="edgeStyle=orthogonalEdgeStyle;rounded=0;orthogonalLoop=1;jettySize=auto;html=1;exitX=0.5;exitY=1;exitDx=0;exitDy=0;entryX=0.5;entryY=0;entryDx=0;entryDy=0;" edge="1" parent="1" source="bhLm6DdJhXgEGIZ7W5pc-2" target="bhLm6DdJhXgEGIZ7W5pc-23">
          <mxGeometry relative="1" as="geometry" />
        </mxCell>
        <mxCell id="bhLm6DdJhXgEGIZ7W5pc-28" style="edgeStyle=orthogonalEdgeStyle;rounded=0;orthogonalLoop=1;jettySize=auto;html=1;exitX=0.5;exitY=1;exitDx=0;exitDy=0;entryX=0.5;entryY=0;entryDx=0;entryDy=0;" edge="1" parent="1" source="bhLm6DdJhXgEGIZ7W5pc-2" target="bhLm6DdJhXgEGIZ7W5pc-27">
          <mxGeometry relative="1" as="geometry" />
        </mxCell>
        <mxCell id="bhLm6DdJhXgEGIZ7W5pc-2" value="Venta" style="whiteSpace=wrap;html=1;align=center;" vertex="1" parent="1">
          <mxGeometry x="910" y="100" width="100" height="40" as="geometry" />
        </mxCell>
        <mxCell id="3UG_Vdnqo0wrHl0kHw0I-10" style="edgeStyle=orthogonalEdgeStyle;rounded=0;orthogonalLoop=1;jettySize=auto;html=1;exitX=1;exitY=0.5;exitDx=0;exitDy=0;" edge="1" parent="1" source="3UG_Vdnqo0wrHl0kHw0I-5" target="3UG_Vdnqo0wrHl0kHw0I-9">
          <mxGeometry relative="1" as="geometry" />
        </mxCell>
        <mxCell id="3UG_Vdnqo0wrHl0kHw0I-12" style="edgeStyle=orthogonalEdgeStyle;rounded=0;orthogonalLoop=1;jettySize=auto;html=1;exitX=0;exitY=0.5;exitDx=0;exitDy=0;" edge="1" parent="1" source="3UG_Vdnqo0wrHl0kHw0I-5" target="3UG_Vdnqo0wrHl0kHw0I-11">
          <mxGeometry relative="1" as="geometry" />
        </mxCell>
        <mxCell id="3UG_Vdnqo0wrHl0kHw0I-14" style="edgeStyle=orthogonalEdgeStyle;rounded=0;orthogonalLoop=1;jettySize=auto;html=1;exitX=1;exitY=0.5;exitDx=0;exitDy=0;entryX=0.5;entryY=0;entryDx=0;entryDy=0;" edge="1" parent="1" source="3UG_Vdnqo0wrHl0kHw0I-5" target="3UG_Vdnqo0wrHl0kHw0I-13">
          <mxGeometry relative="1" as="geometry" />
        </mxCell>
        <mxCell id="3UG_Vdnqo0wrHl0kHw0I-15" style="edgeStyle=orthogonalEdgeStyle;rounded=0;orthogonalLoop=1;jettySize=auto;html=1;exitX=0;exitY=0.5;exitDx=0;exitDy=0;" edge="1" parent="1" source="3UG_Vdnqo0wrHl0kHw0I-5" target="3UG_Vdnqo0wrHl0kHw0I-6">
          <mxGeometry relative="1" as="geometry" />
        </mxCell>
        <mxCell id="3UG_Vdnqo0wrHl0kHw0I-5" value="Categoría" style="whiteSpace=wrap;html=1;align=center;" vertex="1" parent="1">
          <mxGeometry x="-220" y="100" width="100" height="40" as="geometry" />
        </mxCell>
        <mxCell id="bhLm6DdJhXgEGIZ7W5pc-5" value="DocumentoCliente" style="ellipse;whiteSpace=wrap;html=1;align=center;" vertex="1" parent="1">
          <mxGeometry x="1020" y="240" width="100" height="40" as="geometry" />
        </mxCell>
        <mxCell id="bhLm6DdJhXgEGIZ7W5pc-8" value="TipoDocumento" style="ellipse;whiteSpace=wrap;html=1;align=center;" vertex="1" parent="1">
          <mxGeometry x="580" y="240" width="100" height="40" as="geometry" />
        </mxCell>
        <mxCell id="bhLm6DdJhXgEGIZ7W5pc-3" value="idVenta" style="ellipse;whiteSpace=wrap;html=1;align=center;" vertex="1" parent="1">
          <mxGeometry x="910" y="240" width="100" height="40" as="geometry" />
        </mxCell>
        <mxCell id="3UG_Vdnqo0wrHl0kHw0I-6" value="IdCategoria" style="ellipse;whiteSpace=wrap;html=1;align=center;" vertex="1" parent="1">
          <mxGeometry x="-289.99999999999994" y="190" width="100" height="40" as="geometry" />
        </mxCell>
        <mxCell id="bhLm6DdJhXgEGIZ7W5pc-10" value="idUsuario" style="ellipse;whiteSpace=wrap;html=1;align=center;" vertex="1" parent="1">
          <mxGeometry x="800" y="240" width="100" height="40" as="geometry" />
        </mxCell>
        <mxCell id="bhLm6DdJhXgEGIZ7W5pc-16" value="NumeroDocumento" style="ellipse;whiteSpace=wrap;html=1;align=center;" vertex="1" parent="1">
          <mxGeometry x="690" y="240" width="100" height="40" as="geometry" />
        </mxCell>
        <mxCell id="3UG_Vdnqo0wrHl0kHw0I-9" value="Descripción" style="ellipse;whiteSpace=wrap;html=1;align=center;" vertex="1" parent="1">
          <mxGeometry x="-39.99999999999994" y="190" width="100" height="40" as="geometry" />
        </mxCell>
        <mxCell id="bhLm6DdJhXgEGIZ7W5pc-18" value="NombreCliente" style="ellipse;whiteSpace=wrap;html=1;align=center;" vertex="1" parent="1">
          <mxGeometry x="1130" y="240" width="100" height="40" as="geometry" />
        </mxCell>
        <mxCell id="3UG_Vdnqo0wrHl0kHw0I-11" value="Estado" style="ellipse;whiteSpace=wrap;html=1;align=center;" vertex="1" parent="1">
          <mxGeometry x="-399.99999999999994" y="190" width="100" height="40" as="geometry" />
        </mxCell>
        <mxCell id="bhLm6DdJhXgEGIZ7W5pc-24" value="FechaRegistro" style="ellipse;whiteSpace=wrap;html=1;align=center;" vertex="1" parent="1">
          <mxGeometry x="470" y="240" width="100" height="40" as="geometry" />
        </mxCell>
        <mxCell id="3UG_Vdnqo0wrHl0kHw0I-13" value="FechaRegistro" style="ellipse;whiteSpace=wrap;html=1;align=center;" vertex="1" parent="1">
          <mxGeometry x="-149.99999999999994" y="190" width="100" height="40" as="geometry" />
        </mxCell>
        <mxCell id="bhLm6DdJhXgEGIZ7W5pc-23" value="MontoTotal" style="ellipse;whiteSpace=wrap;html=1;align=center;" vertex="1" parent="1">
          <mxGeometry x="1460" y="240" width="100" height="40" as="geometry" />
        </mxCell>
        <mxCell id="bhLm6DdJhXgEGIZ7W5pc-20" value="MontoPago" style="ellipse;whiteSpace=wrap;html=1;align=center;" vertex="1" parent="1">
          <mxGeometry x="1350" y="240" width="100" height="40" as="geometry" />
        </mxCell>
        <mxCell id="3UG_Vdnqo0wrHl0kHw0I-19" style="edgeStyle=orthogonalEdgeStyle;rounded=0;orthogonalLoop=1;jettySize=auto;html=1;exitX=0;exitY=0.5;exitDx=0;exitDy=0;" edge="1" parent="1" source="3UG_Vdnqo0wrHl0kHw0I-16" target="3UG_Vdnqo0wrHl0kHw0I-18">
          <mxGeometry relative="1" as="geometry" />
        </mxCell>
        <mxCell id="3UG_Vdnqo0wrHl0kHw0I-21" style="edgeStyle=orthogonalEdgeStyle;rounded=0;orthogonalLoop=1;jettySize=auto;html=1;exitX=0;exitY=0.5;exitDx=0;exitDy=0;" edge="1" parent="1" source="3UG_Vdnqo0wrHl0kHw0I-16" target="3UG_Vdnqo0wrHl0kHw0I-20">
          <mxGeometry relative="1" as="geometry" />
        </mxCell>
        <mxCell id="3UG_Vdnqo0wrHl0kHw0I-23" style="edgeStyle=orthogonalEdgeStyle;rounded=0;orthogonalLoop=1;jettySize=auto;html=1;exitX=0;exitY=0.5;exitDx=0;exitDy=0;" edge="1" parent="1" source="3UG_Vdnqo0wrHl0kHw0I-16" target="3UG_Vdnqo0wrHl0kHw0I-22">
          <mxGeometry relative="1" as="geometry" />
        </mxCell>
        <mxCell id="3UG_Vdnqo0wrHl0kHw0I-26" style="edgeStyle=orthogonalEdgeStyle;rounded=0;orthogonalLoop=1;jettySize=auto;html=1;exitX=0;exitY=0.5;exitDx=0;exitDy=0;" edge="1" parent="1" source="3UG_Vdnqo0wrHl0kHw0I-16" target="3UG_Vdnqo0wrHl0kHw0I-24">
          <mxGeometry relative="1" as="geometry" />
        </mxCell>
        <mxCell id="3UG_Vdnqo0wrHl0kHw0I-29" style="edgeStyle=orthogonalEdgeStyle;rounded=0;orthogonalLoop=1;jettySize=auto;html=1;exitX=1;exitY=0.5;exitDx=0;exitDy=0;" edge="1" parent="1" source="3UG_Vdnqo0wrHl0kHw0I-16" target="3UG_Vdnqo0wrHl0kHw0I-28">
          <mxGeometry relative="1" as="geometry" />
        </mxCell>
        <mxCell id="3UG_Vdnqo0wrHl0kHw0I-31" style="edgeStyle=orthogonalEdgeStyle;rounded=0;orthogonalLoop=1;jettySize=auto;html=1;exitX=1;exitY=0.5;exitDx=0;exitDy=0;" edge="1" parent="1" source="3UG_Vdnqo0wrHl0kHw0I-16" target="3UG_Vdnqo0wrHl0kHw0I-30">
          <mxGeometry relative="1" as="geometry" />
        </mxCell>
        <mxCell id="3UG_Vdnqo0wrHl0kHw0I-33" style="edgeStyle=orthogonalEdgeStyle;rounded=0;orthogonalLoop=1;jettySize=auto;html=1;exitX=1;exitY=0.5;exitDx=0;exitDy=0;" edge="1" parent="1" source="3UG_Vdnqo0wrHl0kHw0I-16" target="3UG_Vdnqo0wrHl0kHw0I-32">
          <mxGeometry relative="1" as="geometry" />
        </mxCell>
        <mxCell id="3UG_Vdnqo0wrHl0kHw0I-35" style="edgeStyle=orthogonalEdgeStyle;rounded=0;orthogonalLoop=1;jettySize=auto;html=1;exitX=1;exitY=0.5;exitDx=0;exitDy=0;" edge="1" parent="1" source="3UG_Vdnqo0wrHl0kHw0I-16" target="3UG_Vdnqo0wrHl0kHw0I-34">
          <mxGeometry relative="1" as="geometry" />
        </mxCell>
        <mxCell id="3UG_Vdnqo0wrHl0kHw0I-37" style="edgeStyle=orthogonalEdgeStyle;rounded=0;orthogonalLoop=1;jettySize=auto;html=1;exitX=1;exitY=0.5;exitDx=0;exitDy=0;" edge="1" parent="1" source="3UG_Vdnqo0wrHl0kHw0I-16" target="3UG_Vdnqo0wrHl0kHw0I-36">
          <mxGeometry relative="1" as="geometry" />
        </mxCell>
        <mxCell id="3UG_Vdnqo0wrHl0kHw0I-38" style="edgeStyle=orthogonalEdgeStyle;rounded=0;orthogonalLoop=1;jettySize=auto;html=1;exitX=0;exitY=0.5;exitDx=0;exitDy=0;" edge="1" parent="1" source="3UG_Vdnqo0wrHl0kHw0I-16" target="3UG_Vdnqo0wrHl0kHw0I-25">
          <mxGeometry relative="1" as="geometry" />
        </mxCell>
        <mxCell id="3UG_Vdnqo0wrHl0kHw0I-16" value="Producto" style="whiteSpace=wrap;html=1;align=center;" vertex="1" parent="1">
          <mxGeometry x="385" y="460" width="100" height="40" as="geometry" />
        </mxCell>
        <mxCell id="bhLm6DdJhXgEGIZ7W5pc-27" value="MontoCambio" style="ellipse;whiteSpace=wrap;html=1;align=center;" vertex="1" parent="1">
          <mxGeometry x="1240" y="240" width="100" height="40" as="geometry" />
        </mxCell>
        <mxCell id="3UG_Vdnqo0wrHl0kHw0I-18" value="IdProducto" style="ellipse;whiteSpace=wrap;html=1;align=center;" vertex="1" parent="1">
          <mxGeometry x="-149.99999999999994" y="510" width="100" height="40" as="geometry" />
        </mxCell>
        <mxCell id="3UG_Vdnqo0wrHl0kHw0I-20" value="Código" style="ellipse;whiteSpace=wrap;html=1;align=center;" vertex="1" parent="1">
          <mxGeometry x="-29.999999999999943" y="510" width="100" height="40" as="geometry" />
        </mxCell>
        <mxCell id="3UG_Vdnqo0wrHl0kHw0I-22" value="Nombre" style="ellipse;whiteSpace=wrap;html=1;align=center;" vertex="1" parent="1">
          <mxGeometry x="85.00000000000006" y="510" width="100" height="40" as="geometry" />
        </mxCell>
        <mxCell id="3UG_Vdnqo0wrHl0kHw0I-24" value="Descripción" style="ellipse;whiteSpace=wrap;html=1;align=center;" vertex="1" parent="1">
          <mxGeometry x="200.00000000000006" y="510" width="100" height="40" as="geometry" />
        </mxCell>
        <mxCell id="3UG_Vdnqo0wrHl0kHw0I-25" value="IdCategoria" style="ellipse;whiteSpace=wrap;html=1;align=center;" vertex="1" parent="1">
          <mxGeometry x="310.00000000000006" y="510" width="100" height="40" as="geometry" />
        </mxCell>
        <mxCell id="3UG_Vdnqo0wrHl0kHw0I-28" value="Stock" style="ellipse;whiteSpace=wrap;html=1;align=center;" vertex="1" parent="1">
          <mxGeometry x="460" y="510" width="100" height="40" as="geometry" />
        </mxCell>
        <mxCell id="3UG_Vdnqo0wrHl0kHw0I-30" value="PrecioCompra" style="ellipse;whiteSpace=wrap;html=1;align=center;" vertex="1" parent="1">
          <mxGeometry x="580" y="510" width="100" height="40" as="geometry" />
        </mxCell>
        <mxCell id="3UG_Vdnqo0wrHl0kHw0I-32" value="PrecioVenta" style="ellipse;whiteSpace=wrap;html=1;align=center;" vertex="1" parent="1">
          <mxGeometry x="700" y="510" width="100" height="40" as="geometry" />
        </mxCell>
        <mxCell id="3UG_Vdnqo0wrHl0kHw0I-34" value="Estado" style="ellipse;whiteSpace=wrap;html=1;align=center;" vertex="1" parent="1">
          <mxGeometry x="820" y="510" width="100" height="40" as="geometry" />
        </mxCell>
        <mxCell id="3UG_Vdnqo0wrHl0kHw0I-36" value="FechaRegistro" style="ellipse;whiteSpace=wrap;html=1;align=center;" vertex="1" parent="1">
          <mxGeometry x="940" y="510" width="100" height="40" as="geometry" />
        </mxCell>
        <mxCell id="3UG_Vdnqo0wrHl0kHw0I-45" style="edgeStyle=orthogonalEdgeStyle;rounded=0;orthogonalLoop=1;jettySize=auto;html=1;exitX=0;exitY=0.5;exitDx=0;exitDy=0;" edge="1" parent="1" source="3UG_Vdnqo0wrHl0kHw0I-39" target="3UG_Vdnqo0wrHl0kHw0I-44">
          <mxGeometry relative="1" as="geometry" />
        </mxCell>
        <mxCell id="3UG_Vdnqo0wrHl0kHw0I-47" style="edgeStyle=orthogonalEdgeStyle;rounded=0;orthogonalLoop=1;jettySize=auto;html=1;exitX=0;exitY=0.5;exitDx=0;exitDy=0;" edge="1" parent="1" source="3UG_Vdnqo0wrHl0kHw0I-39" target="3UG_Vdnqo0wrHl0kHw0I-46">
          <mxGeometry relative="1" as="geometry" />
        </mxCell>
        <mxCell id="3UG_Vdnqo0wrHl0kHw0I-49" style="edgeStyle=orthogonalEdgeStyle;rounded=0;orthogonalLoop=1;jettySize=auto;html=1;exitX=0;exitY=0.5;exitDx=0;exitDy=0;" edge="1" parent="1" source="3UG_Vdnqo0wrHl0kHw0I-39" target="3UG_Vdnqo0wrHl0kHw0I-48">
          <mxGeometry relative="1" as="geometry" />
        </mxCell>
        <mxCell id="3UG_Vdnqo0wrHl0kHw0I-51" style="edgeStyle=orthogonalEdgeStyle;rounded=0;orthogonalLoop=1;jettySize=auto;html=1;exitX=0.5;exitY=1;exitDx=0;exitDy=0;" edge="1" parent="1" source="3UG_Vdnqo0wrHl0kHw0I-39" target="3UG_Vdnqo0wrHl0kHw0I-50">
          <mxGeometry relative="1" as="geometry" />
        </mxCell>
        <mxCell id="3UG_Vdnqo0wrHl0kHw0I-53" style="edgeStyle=orthogonalEdgeStyle;rounded=0;orthogonalLoop=1;jettySize=auto;html=1;exitX=1;exitY=0.5;exitDx=0;exitDy=0;" edge="1" parent="1" source="3UG_Vdnqo0wrHl0kHw0I-39" target="3UG_Vdnqo0wrHl0kHw0I-52">
          <mxGeometry relative="1" as="geometry" />
        </mxCell>
        <mxCell id="3UG_Vdnqo0wrHl0kHw0I-55" style="edgeStyle=orthogonalEdgeStyle;rounded=0;orthogonalLoop=1;jettySize=auto;html=1;exitX=1;exitY=0.5;exitDx=0;exitDy=0;" edge="1" parent="1" source="3UG_Vdnqo0wrHl0kHw0I-39" target="3UG_Vdnqo0wrHl0kHw0I-54">
          <mxGeometry relative="1" as="geometry" />
        </mxCell>
        <mxCell id="3UG_Vdnqo0wrHl0kHw0I-57" style="edgeStyle=orthogonalEdgeStyle;rounded=0;orthogonalLoop=1;jettySize=auto;html=1;exitX=1;exitY=0.5;exitDx=0;exitDy=0;" edge="1" parent="1" source="3UG_Vdnqo0wrHl0kHw0I-39" target="3UG_Vdnqo0wrHl0kHw0I-56">
          <mxGeometry relative="1" as="geometry" />
        </mxCell>
        <mxCell id="3UG_Vdnqo0wrHl0kHw0I-39" value="CompraProveedor" style="whiteSpace=wrap;html=1;align=center;" vertex="1" parent="1">
          <mxGeometry x="-450" y="600" width="100" height="40" as="geometry" />
        </mxCell>
        <mxCell id="3UG_Vdnqo0wrHl0kHw0I-44" value="IdCompra" style="ellipse;whiteSpace=wrap;html=1;align=center;" vertex="1" parent="1">
          <mxGeometry x="-770" y="670" width="100" height="40" as="geometry" />
        </mxCell>
        <mxCell id="3UG_Vdnqo0wrHl0kHw0I-46" value="idUsuario" style="ellipse;whiteSpace=wrap;html=1;align=center;" vertex="1" parent="1">
          <mxGeometry x="-660" y="670" width="100" height="40" as="geometry" />
        </mxCell>
        <mxCell id="3UG_Vdnqo0wrHl0kHw0I-48" value="idProveedor" style="ellipse;whiteSpace=wrap;html=1;align=center;" vertex="1" parent="1">
          <mxGeometry x="-555" y="670" width="100" height="40" as="geometry" />
        </mxCell>
        <mxCell id="3UG_Vdnqo0wrHl0kHw0I-50" value="TipoDocumento" style="ellipse;whiteSpace=wrap;html=1;align=center;" vertex="1" parent="1">
          <mxGeometry x="-450" y="670" width="100" height="40" as="geometry" />
        </mxCell>
        <mxCell id="3UG_Vdnqo0wrHl0kHw0I-52" value="NumeroDocumento" style="ellipse;whiteSpace=wrap;html=1;align=center;" vertex="1" parent="1">
          <mxGeometry x="-340" y="670" width="100" height="40" as="geometry" />
        </mxCell>
        <mxCell id="3UG_Vdnqo0wrHl0kHw0I-54" value="MontoTotal" style="ellipse;whiteSpace=wrap;html=1;align=center;" vertex="1" parent="1">
          <mxGeometry x="-230" y="670" width="100" height="40" as="geometry" />
        </mxCell>
        <mxCell id="3UG_Vdnqo0wrHl0kHw0I-56" value="FechaRegistro" style="ellipse;whiteSpace=wrap;html=1;align=center;" vertex="1" parent="1">
          <mxGeometry x="-120" y="670" width="100" height="40" as="geometry" />
        </mxCell>
      </root>
    </mxGraphModel>
  </diagram>
</mxfile>
